<svg width="100" height="47" viewBox="0 0 100 47" fill="none" xmlns="http://www.w3.org/2000/svg">
<path d="M29.9395 30.68C29.9395 32.0933 29.5795 33.36 28.8595 34.48C28.1395 35.5733 27.1662 36.44 25.9395 37.08C24.7395 37.6933 23.4195 38 21.9795 38H8.57953V9.6H22.2595C23.5929 9.6 24.7395 9.96 25.6995 10.68C26.6595 11.3733 27.4062 12.28 27.9395 13.4C28.4729 14.4933 28.7395 15.64 28.7395 16.84C28.7395 18.2533 28.3795 19.56 27.6595 20.76C26.9395 21.96 25.9395 22.8533 24.6595 23.44C26.2595 23.92 27.5395 24.8133 28.4995 26.12C29.4595 27.4267 29.9395 28.9467 29.9395 30.68ZM11.3795 12.04V22.52H21.1395C22.0729 22.52 22.8995 22.28 23.6195 21.8C24.3662 21.2933 24.9395 20.6533 25.3395 19.88C25.7662 19.08 25.9795 18.2133 25.9795 17.28C25.9795 16.32 25.7795 15.44 25.3795 14.64C24.9795 13.84 24.4329 13.2133 23.7395 12.76C23.0462 12.28 22.2595 12.04 21.3795 12.04H11.3795ZM27.1395 30.2C27.1395 29.2667 26.9262 28.3867 26.4995 27.56C26.0729 26.7333 25.4862 26.0667 24.7395 25.56C24.0195 25.0533 23.1929 24.8 22.2595 24.8H11.3795V35.56H21.9795C22.9395 35.56 23.8062 35.3067 24.5795 34.8C25.3529 34.2933 25.9662 33.64 26.4195 32.84C26.8995 32.0133 27.1395 31.1333 27.1395 30.2ZM34.7802 8.8H37.5002V33.28C37.5002 34.32 37.6735 35 38.0202 35.32C38.3935 35.64 38.8602 35.8 39.4202 35.8C39.9002 35.8 40.3802 35.7467 40.8602 35.64C41.3668 35.5333 41.7802 35.4267 42.1002 35.32L42.5802 37.52C42.0735 37.7333 41.4468 37.9067 40.7002 38.04C39.9802 38.1733 39.3535 38.24 38.8202 38.24C37.5935 38.24 36.6068 37.88 35.8602 37.16C35.1402 36.44 34.7802 35.4533 34.7802 34.2V8.8ZM54.4386 38.4C52.4386 38.4 50.6519 37.9067 49.0786 36.92C47.5319 35.9333 46.3186 34.6267 45.4386 33C44.5586 31.3467 44.1186 29.56 44.1186 27.64C44.1186 25.6933 44.5586 23.9067 45.4386 22.28C46.3453 20.6267 47.5719 19.3067 49.1186 18.32C50.6919 17.3067 52.4653 16.8 54.4386 16.8C56.4386 16.8 58.2119 17.3067 59.7586 18.32C61.3319 19.3067 62.5586 20.6267 63.4386 22.28C64.3453 23.9067 64.7986 25.6933 64.7986 27.64C64.7986 29.56 64.3586 31.3467 63.4786 33C62.5986 34.6267 61.3719 35.9333 59.7986 36.92C58.2519 37.9067 56.4653 38.4 54.4386 38.4ZM46.8786 27.68C46.8786 29.2267 47.2119 30.64 47.8786 31.92C48.5719 33.1733 49.4919 34.1733 50.6386 34.92C51.7853 35.64 53.0519 36 54.4386 36C55.8253 36 57.0919 35.6267 58.2386 34.88C59.3853 34.1333 60.3053 33.12 60.9986 31.84C61.6919 30.56 62.0386 29.1467 62.0386 27.6C62.0386 26.0533 61.6919 24.64 60.9986 23.36C60.3053 22.08 59.3853 21.0667 58.2386 20.32C57.0919 19.5733 55.8253 19.2 54.4386 19.2C53.0786 19.2 51.8253 19.5867 50.6786 20.36C49.5319 21.1067 48.6119 22.12 47.9186 23.4C47.2253 24.68 46.8786 26.1067 46.8786 27.68ZM81.3077 38.2C79.3877 38.2 77.6143 37.8 75.9877 37C74.3877 36.1733 72.9877 35.0667 71.7877 33.68C70.5877 32.2933 69.6543 30.7467 68.9877 29.04C68.3477 27.3067 68.0277 25.5467 68.0277 23.76C68.0277 21.8667 68.3477 20.0667 68.9877 18.36C69.6543 16.6267 70.5743 15.0933 71.7477 13.76C72.921 12.4 74.3077 11.3333 75.9077 10.56C77.5077 9.78667 79.2543 9.4 81.1477 9.4C83.9477 9.4 86.2277 9.97333 87.9877 11.12C89.7477 12.2667 91.081 13.76 91.9877 15.6L89.8277 17.04C88.921 15.28 87.7077 13.9867 86.1877 13.16C84.6677 12.3333 82.9743 11.92 81.1077 11.92C79.5343 11.92 78.1077 12.2533 76.8277 12.92C75.5743 13.5867 74.4943 14.48 73.5877 15.6C72.7077 16.72 72.0277 17.9867 71.5477 19.4C71.0677 20.8133 70.8277 22.28 70.8277 23.8C70.8277 25.4 71.0943 26.92 71.6277 28.36C72.161 29.7733 72.9077 31.04 73.8677 32.16C74.8543 33.2533 75.9877 34.12 77.2677 34.76C78.5743 35.3733 79.9877 35.68 81.5077 35.68C83.1343 35.68 84.681 35.2933 86.1477 34.52C87.641 33.7467 89.0677 32.5467 90.4277 30.92V26.2H84.1077V24.04H92.7877V38H90.4277V33.84C87.8143 36.7467 84.7743 38.2 81.3077 38.2Z" fill="white"/>
</svg>
